<svg width="33" height="30" viewBox="0 0 33 30" fill="none" xmlns="http://www.w3.org/2000/svg"><mask id="path-1-outside-1_2025_50151" maskUnits="userSpaceOnUse" x="-0.448242" y="11.0569" width="10" height="9" fill="black"><rect fill="white" x="-0.448242" y="11.0569" width="10" height="9"/><path fill-rule="evenodd" clip-rule="evenodd" d="M4.09636 17.1461C3.2433 17.1461 2.55176 16.4546 2.55176 15.6015C2.55176 14.7484 3.2433 14.0569 4.09636 14.0569H5.24894C6.102 14.0569 6.79355 14.7484 6.79355 15.6015C6.79355 16.4546 6.102 17.1461 5.24894 17.1461H4.09636Z"/></mask><path fill-rule="evenodd" clip-rule="evenodd" d="M4.09636 17.1461C3.2433 17.1461 2.55176 16.4546 2.55176 15.6015C2.55176 14.7484 3.2433 14.0569 4.09636 14.0569H5.24894C6.102 14.0569 6.79355 14.7484 6.79355 15.6015C6.79355 16.4546 6.102 17.1461 5.24894 17.1461H4.09636Z" fill="black"/><path d="M0.536167 15.6015C0.536167 17.5677 2.13012 19.1617 4.09636 19.1617V15.1305C4.35648 15.1305 4.56735 15.3414 4.56735 15.6015H0.536167ZM4.09636 12.0413C2.13012 12.0413 0.536167 13.6352 0.536167 15.6015H4.56735C4.56735 15.8616 4.35648 16.0725 4.09636 16.0725V12.0413ZM5.24894 12.0413H4.09636V16.0725H5.24894V12.0413ZM8.80914 15.6015C8.80914 13.6352 7.21518 12.0413 5.24894 12.0413V16.0725C4.98882 16.0725 4.77796 15.8616 4.77796 15.6015H8.80914ZM5.24894 19.1617C7.21519 19.1617 8.80914 17.5677 8.80914 15.6015H4.77796C4.77796 15.3414 4.98882 15.1305 5.24894 15.1305V19.1617ZM4.09636 19.1617H5.24894V15.1305H4.09636V19.1617Z" fill="white" mask="url(#path-1-outside-1_2025_50151)"/><path fill-rule="evenodd" clip-rule="evenodd" d="M28.4593 11.681C28.4796 11.1572 28.3135 10.7547 27.8761 10.5748C26.9789 10.2058 26.3295 11.1199 25.7983 12.3585C25.2672 13.5971 25.0911 14.7058 25.9528 15.0601C26.3074 15.2059 26.6729 15.0915 27.0159 14.7991C26.3495 15.6018 25.5589 15.9882 24.7641 15.6544C23.3426 15.0575 23.5425 13.4058 24.3067 11.5858C25.071 9.76569 26.0517 8.44187 27.5318 9.0634C28.5147 9.47614 28.7146 10.4715 28.4593 11.681Z" fill="white"/><mask id="path-4-outside-2_2025_50151" maskUnits="userSpaceOnUse" x="2.58398" y="-0.39917" width="30" height="26" fill="black"><rect fill="white" x="2.58398" y="-0.39917" width="30" height="26"/><path fill-rule="evenodd" clip-rule="evenodd" d="M25.0514 4.58038C25.7943 4.58038 30.0189 5.94452 30.0189 10.9835C30.0189 12.134 29.7898 13.2676 29.3768 14.3519C29.716 15.0096 30.092 16.0361 29.9742 16.9159C29.9256 17.2787 29.5806 17.4986 29.2172 17.4547C28.7733 17.4012 28.2694 17.2908 27.82 17.1739C25.2897 20.6156 20.9526 23.0618 16.8391 23.0618C12.3445 23.0618 8.82643 20.104 8.82643 15.7614C8.82643 14.5206 9.30429 14.2094 9.78539 14.2094C10.2718 14.2094 10.7149 14.3225 11.1836 14.4422C11.4956 14.5219 11.819 14.6045 12.1742 14.6586C12.8739 14.7651 13.1245 13.7042 12.4276 13.4642C12.2541 13.4044 12.0002 13.3461 11.6909 13.2751C9.96913 12.8799 6.52881 12.0901 5.66021 8.45174C5.25106 6.73723 6.56342 6.74183 7.8218 6.74624C7.8854 6.74646 7.94886 6.74668 8.01196 6.74668C8.46159 6.74668 8.95393 6.7521 9.46245 6.75769C11.905 6.78453 14.7211 6.81549 14.9726 6.27058C14.9996 6.21202 15.0332 6.13103 15.0742 6.03205C15.3166 5.44677 15.8196 4.23271 16.7738 3.31089C18.2737 1.86198 20.5025 2.91089 22.2988 3.97027C23.3777 4.60658 23.8537 4.59843 24.6526 4.58476C24.7766 4.58263 24.9084 4.58038 25.0514 4.58038Z"/></mask><path fill-rule="evenodd" clip-rule="evenodd" d="M25.0514 4.58038C25.7943 4.58038 30.0189 5.94452 30.0189 10.9835C30.0189 12.134 29.7898 13.2676 29.3768 14.3519C29.716 15.0096 30.092 16.0361 29.9742 16.9159C29.9256 17.2787 29.5806 17.4986 29.2172 17.4547C28.7733 17.4012 28.2694 17.2908 27.82 17.1739C25.2897 20.6156 20.9526 23.0618 16.8391 23.0618C12.3445 23.0618 8.82643 20.104 8.82643 15.7614C8.82643 14.5206 9.30429 14.2094 9.78539 14.2094C10.2718 14.2094 10.7149 14.3225 11.1836 14.4422C11.4956 14.5219 11.819 14.6045 12.1742 14.6586C12.8739 14.7651 13.1245 13.7042 12.4276 13.4642C12.2541 13.4044 12.0002 13.3461 11.6909 13.2751C9.96913 12.8799 6.52881 12.0901 5.66021 8.45174C5.25106 6.73723 6.56342 6.74183 7.8218 6.74624C7.8854 6.74646 7.94886 6.74668 8.01196 6.74668C8.46159 6.74668 8.95393 6.7521 9.46245 6.75769C11.905 6.78453 14.7211 6.81549 14.9726 6.27058C14.9996 6.21202 15.0332 6.13103 15.0742 6.03205C15.3166 5.44677 15.8196 4.23271 16.7738 3.31089C18.2737 1.86198 20.5025 2.91089 22.2988 3.97027C23.3777 4.60658 23.8537 4.59843 24.6526 4.58476C24.7766 4.58263 24.9084 4.58038 25.0514 4.58038Z" fill="black"/><path fill-rule="evenodd" clip-rule="evenodd" d="M25.0514 4.58038C25.7943 4.58038 30.0189 5.94452 30.0189 10.9835C30.0189 12.134 29.7898 13.2676 29.3768 14.3519C29.716 15.0096 30.092 16.0361 29.9742 16.9159C29.9256 17.2787 29.5806 17.4986 29.2172 17.4547C28.7733 17.4012 28.2694 17.2908 27.82 17.1739C25.2897 20.6156 20.9526 23.0618 16.8391 23.0618C12.3445 23.0618 8.82643 20.104 8.82643 15.7614C8.82643 14.5206 9.30429 14.2094 9.78539 14.2094C10.2718 14.2094 10.7149 14.3225 11.1836 14.4422C11.4956 14.5219 11.819 14.6045 12.1742 14.6586C12.8739 14.7651 13.1245 13.7042 12.4276 13.4642C12.2541 13.4044 12.0002 13.3461 11.6909 13.2751C9.96913 12.8799 6.52881 12.0901 5.66021 8.45174C5.25106 6.73723 6.56342 6.74183 7.8218 6.74624C7.8854 6.74646 7.94886 6.74668 8.01196 6.74668C8.46159 6.74668 8.95393 6.7521 9.46245 6.75769C11.905 6.78453 14.7211 6.81549 14.9726 6.27058C14.9996 6.21202 15.0332 6.13103 15.0742 6.03205C15.3166 5.44677 15.8196 4.23271 16.7738 3.31089C18.2737 1.86198 20.5025 2.91089 22.2988 3.97027C23.3777 4.60658 23.8537 4.59843 24.6526 4.58476C24.7766 4.58263 24.9084 4.58038 25.0514 4.58038Z" fill="url(#paint0_radial_2025_50151)"/><path fill-rule="evenodd" clip-rule="evenodd" d="M25.0514 4.58038C25.7943 4.58038 30.0189 5.94452 30.0189 10.9835C30.0189 12.134 29.7898 13.2676 29.3768 14.3519C29.716 15.0096 30.092 16.0361 29.9742 16.9159C29.9256 17.2787 29.5806 17.4986 29.2172 17.4547C28.7733 17.4012 28.2694 17.2908 27.82 17.1739C25.2897 20.6156 20.9526 23.0618 16.8391 23.0618C12.3445 23.0618 8.82643 20.104 8.82643 15.7614C8.82643 14.5206 9.30429 14.2094 9.78539 14.2094C10.2718 14.2094 10.7149 14.3225 11.1836 14.4422C11.4956 14.5219 11.819 14.6045 12.1742 14.6586C12.8739 14.7651 13.1245 13.7042 12.4276 13.4642C12.2541 13.4044 12.0002 13.3461 11.6909 13.2751C9.96913 12.8799 6.52881 12.0901 5.66021 8.45174C5.25106 6.73723 6.56342 6.74183 7.8218 6.74624C7.8854 6.74646 7.94886 6.74668 8.01196 6.74668C8.46159 6.74668 8.95393 6.7521 9.46245 6.75769C11.905 6.78453 14.7211 6.81549 14.9726 6.27058C14.9996 6.21202 15.0332 6.13103 15.0742 6.03205C15.3166 5.44677 15.8196 4.23271 16.7738 3.31089C18.2737 1.86198 20.5025 2.91089 22.2988 3.97027C23.3777 4.60658 23.8537 4.59843 24.6526 4.58476C24.7766 4.58263 24.9084 4.58038 25.0514 4.58038Z" fill="url(#paint1_radial_2025_50151)"/><path d="M29.3768 14.3519L27.4932 13.6344L27.1728 14.4757L27.5854 15.2759L29.3768 14.3519ZM29.9742 16.9159L31.9719 17.1835V17.1835L29.9742 16.9159ZM29.2172 17.4547L29.4586 15.4536H29.4586L29.2172 17.4547ZM27.82 17.1739L28.3271 15.2232L27.0051 14.8795L26.196 15.98L27.82 17.1739ZM11.1836 14.4422L11.6823 12.4893H11.6823L11.1836 14.4422ZM12.1742 14.6586L12.4774 12.6659H12.4774L12.1742 14.6586ZM12.4276 13.4642L11.7712 15.3699L11.7712 15.3699L12.4276 13.4642ZM11.6909 13.2751L11.24 15.2396H11.24L11.6909 13.2751ZM5.66021 8.45174L3.69967 8.9196L3.69971 8.91977L5.66021 8.45174ZM7.8218 6.74624L7.82887 4.73066H7.82886L7.8218 6.74624ZM9.46245 6.75769L9.4403 8.77315L9.46245 6.75769ZM14.9726 6.27058L13.1425 5.42592L13.1425 5.42593L14.9726 6.27058ZM15.0742 6.03205L13.212 5.26064L13.212 5.26065L15.0742 6.03205ZM16.7738 3.31089L15.3734 1.86123V1.86123L16.7738 3.31089ZM22.2988 3.97027L21.2749 5.70643L22.2988 3.97027ZM24.6526 4.58476L24.6181 2.56946V2.56946L24.6526 4.58476ZM32.0345 10.9835C32.0345 7.81587 30.6733 5.66983 29.1146 4.35276C28.3591 3.71436 27.5756 3.28391 26.9101 3.00917C26.3136 2.76292 25.6241 2.56479 25.0514 2.56479V6.59597C24.8501 6.59597 24.9673 6.56835 25.3719 6.73534C25.7074 6.87385 26.1193 7.09937 26.5128 7.43187C27.2522 8.05662 28.0033 9.11213 28.0033 10.9835H32.0345ZM31.2604 15.0694C31.7515 13.7799 32.0345 12.4037 32.0345 10.9835H28.0033C28.0033 11.8644 27.8281 12.7553 27.4932 13.6344L31.2604 15.0694ZM31.9719 17.1835C32.1742 15.6734 31.5585 14.1848 31.1681 13.428L27.5854 15.2759C27.7036 15.505 27.8242 15.7927 27.9015 16.078C27.9828 16.3779 27.9872 16.5677 27.9764 16.6483L31.9719 17.1835ZM28.9757 19.4558C30.2188 19.6058 31.7497 18.8425 31.9719 17.1835L27.9764 16.6483C28.1015 15.7149 28.9423 15.3913 29.4586 15.4536L28.9757 19.4558ZM27.3128 19.1246C27.8038 19.2523 28.4051 19.3869 28.9757 19.4558L29.4586 15.4536C29.1415 15.4154 28.7351 15.3292 28.3271 15.2232L27.3128 19.1246ZM16.8391 25.0774C21.6811 25.0774 26.5886 22.2515 29.4439 18.3678L26.196 15.98C23.9907 18.9797 20.2242 21.0462 16.8391 21.0462V25.0774ZM6.81084 15.7614C6.81084 21.4323 11.4594 25.0774 16.8391 25.0774V21.0462C13.2297 21.0462 10.842 18.7757 10.842 15.7614H6.81084ZM9.78539 12.1938C9.07486 12.1938 8.17619 12.4505 7.52938 13.2892C6.9595 14.0282 6.81084 14.9387 6.81084 15.7614H10.842C10.842 15.3432 10.9323 15.4778 10.7216 15.751C10.603 15.9048 10.4338 16.0406 10.2317 16.1278C10.0418 16.2099 9.87961 16.225 9.78539 16.225V12.1938ZM11.6823 12.4893C11.2484 12.3785 10.5647 12.1938 9.78539 12.1938V16.225C9.97896 16.225 10.1813 16.2666 10.6848 16.3952L11.6823 12.4893ZM12.4774 12.6659C12.2352 12.6291 12.0043 12.5716 11.6823 12.4893L10.6848 16.3952C10.9869 16.4723 11.4028 16.58 11.871 16.6512L12.4774 12.6659ZM11.7712 15.3699C11.4419 15.2564 11.1377 15 10.9657 14.6442C10.8102 14.3225 10.8012 14.0041 10.8576 13.7518C10.9135 13.5014 11.0588 13.2065 11.3528 12.9728C11.6811 12.7119 12.0986 12.6083 12.4774 12.6659L11.871 16.6512C13.5183 16.9019 14.5573 15.6801 14.7917 14.6309C15.0303 13.5633 14.5982 12.08 13.084 11.5585L11.7712 15.3699ZM11.24 15.2396C11.3999 15.2763 11.5205 15.3041 11.6219 15.3294C11.6708 15.3416 11.7075 15.3514 11.735 15.3591C11.7632 15.3671 11.7736 15.3707 11.7712 15.3699L13.084 11.5585C12.7843 11.4552 12.4029 11.3706 12.1419 11.3106L11.24 15.2396ZM3.69971 8.91977C4.88945 13.9033 9.67192 14.8797 11.24 15.2396L12.1419 11.3106C10.2663 10.8801 8.16817 10.2769 7.62071 7.9837L3.69971 8.91977ZM7.82886 4.73066C7.53457 4.72963 7.1214 4.72665 6.71962 4.76187C6.33009 4.79601 5.7735 4.87771 5.22935 5.14414C4.62204 5.44149 4.03826 5.96957 3.7483 6.78881C3.48465 7.5337 3.54853 8.28626 3.69967 8.9196L7.62075 7.98387C7.56731 7.75996 7.6418 7.87015 7.54847 8.13384C7.49801 8.27642 7.41273 8.42034 7.29527 8.54423C7.18228 8.66342 7.07147 8.73064 7.00201 8.76465C6.93642 8.79676 6.902 8.80223 6.92149 8.79783C6.94009 8.79362 6.9867 8.7851 7.07165 8.77765C7.25707 8.76139 7.47983 8.76064 7.81473 8.76182L7.82886 4.73066ZM8.01196 4.73109C7.95299 4.73109 7.89308 4.73088 7.82887 4.73066L7.81473 8.76182C7.87772 8.76204 7.94473 8.76227 8.01196 8.76227V4.73109ZM9.48461 4.74222C8.97876 4.73666 8.47478 4.73109 8.01196 4.73109V8.76227C8.4484 8.76227 8.92909 8.76753 9.4403 8.77315L9.48461 4.74222ZM13.1425 5.42593C13.4019 4.86393 13.8362 4.65874 13.8854 4.63496C13.9822 4.58805 14.0152 4.59028 13.9212 4.61068C13.7425 4.6495 13.4178 4.68918 12.9289 4.71597C11.9683 4.76859 10.727 4.75587 9.48461 4.74222L9.4403 8.77315C10.6404 8.78635 12.0284 8.80253 13.1494 8.74112C13.7012 8.71088 14.2804 8.65782 14.7768 8.55003C15.0204 8.49712 15.3336 8.41258 15.6422 8.26317C15.903 8.13688 16.4804 7.81346 16.8026 7.11523L13.1425 5.42593ZM13.212 5.26065C13.1907 5.31203 13.1751 5.34963 13.1617 5.38135C13.1553 5.39652 13.1505 5.40771 13.1469 5.41592C13.1433 5.42432 13.1419 5.42716 13.1425 5.42592L16.8026 7.11524C16.8505 7.01162 16.9019 6.8864 16.9363 6.80345L13.212 5.26065ZM15.3734 1.86123C14.0842 3.10658 13.4492 4.68808 13.212 5.26064L16.9363 6.80345C17.184 6.20546 17.5549 5.35883 18.1742 4.76056L15.3734 1.86123ZM23.3227 2.23412C22.405 1.6929 21.1634 1.01902 19.8588 0.731591C18.485 0.428915 16.771 0.511152 15.3734 1.86123L18.1742 4.76056C18.2765 4.66173 18.4269 4.54396 18.9915 4.66836C19.6253 4.808 20.3963 5.18827 21.2749 5.70643L23.3227 2.23412ZM24.6181 2.56946C24.1867 2.57685 24.0958 2.57028 24.003 2.5504C23.9312 2.53502 23.7493 2.48573 23.3227 2.23412L21.2749 5.70643C21.9272 6.09112 22.5228 6.35591 23.1584 6.49211C23.7731 6.62382 24.3196 6.60634 24.6871 6.60005L24.6181 2.56946ZM25.0514 2.56479C24.8887 2.56479 24.7406 2.56737 24.6181 2.56946L24.6871 6.60005C24.8126 6.5979 24.928 6.59597 25.0514 6.59597V2.56479Z" fill="white" mask="url(#path-4-outside-2_2025_50151)"/><path d="M3.73535 12.025C5.34831 12.0862 4.22537 10.5345 3.91911 9.677L5.4504 10.2691L6.06292 11.7391L5.34831 12.6171C5.14414 12.7464 4.53571 12.809 3.73535 12.025Z" fill="white"/><path d="M7.91922 20.2326C7.53129 19.6405 6.72481 18.9259 6 19.0892L6.47981 17.8335L7.63338 17.6089L8.59299 19.6098C8.49771 20.0147 8.22956 20.7062 7.91922 20.2326Z" fill="white"/><path d="M19.5266 26.1329C19.1182 24.8364 17.934 25.0712 17.2705 25.0712L16.709 24.2239L18.1994 23.7236L19.9247 23.9584L20.3228 25.5306C20.2786 25.8232 20.0574 26.3534 19.5266 26.1329Z" fill="white"/><path d="M28.1527 19.9059C28.5305 19.5231 28.852 19.5384 29.4237 19.4771L29.4697 19.1403C29.2758 19.0654 28.8827 18.9095 28.8623 18.885C28.8419 18.8605 28.2412 19.2083 27.9435 19.3852C27.8873 19.6864 27.8506 20.2121 28.1527 19.9059Z" fill="white"/><path d="M27.8835 22.0396C27.419 21.325 27.3578 20.6921 27.7202 20.345C27.4224 20.345 26.8106 20.3572 26.7452 20.4062C26.6636 20.4675 26.3465 21.4016 26.321 21.422C26.3006 21.4383 26.7616 21.8405 26.9947 22.0396C27.187 22.1978 27.6339 22.4194 27.8835 22.0396Z" fill="white"/><path d="M27.4176 24.5908C27.5284 24.1178 27.4965 23.5125 27.2472 22.9616C26.9797 22.3707 26.4532 21.8345 25.6261 21.6409C25.1848 21.5375 24.7868 21.5797 24.4145 21.7373C24.1479 21.8501 23.8967 22.0274 23.7226 22.1504C23.7011 22.1655 23.6808 22.1799 23.6618 22.1931C23.2837 22.4573 22.7752 22.7993 21.7386 23.0687C20.5865 23.368 20.1872 24.5409 20.3774 25.4483C20.5903 26.4636 21.4569 27.2676 22.7733 27.4783C24.3062 27.7237 25.4528 27.2065 26.2155 26.5104C26.9321 25.8565 27.3105 25.0483 27.4176 24.5908Z" fill="black" stroke="white" stroke-width="2.01559"/><path fill-rule="evenodd" clip-rule="evenodd" d="M28.3861 12.1285C28.4063 11.5665 28.2266 11.1347 27.7563 10.9414C26.7877 10.5431 26.0867 11.5298 25.5133 12.8669C24.94 14.204 24.7499 15.4008 25.6801 15.7834C26.0617 15.9403 26.455 15.818 26.8243 15.5045C26.1054 16.3693 25.2527 16.7852 24.3955 16.4253C22.861 15.7809 23.0768 13.9979 23.9018 12.0331C24.7269 10.0683 25.7855 8.63918 27.3833 9.31013C28.4424 9.75485 28.6593 10.8262 28.3861 12.1285Z" fill="#38EEFF"/><defs><radialGradient id="paint0_radial_2025_50151" cx="0" cy="0" r="1" gradientUnits="userSpaceOnUse" gradientTransform="translate(21.1813 7.5212) rotate(88.8795) scale(15.5436 23.6593)"><stop stop-color="#47FCB0"/><stop offset="0.490495" stop-color="#36E2FF"/><stop offset="0.984375" stop-color="#DF50FF"/></radialGradient><radialGradient id="paint1_radial_2025_50151" cx="0" cy="0" r="1" gradientUnits="userSpaceOnUse" gradientTransform="translate(25.0552 3.21173) rotate(-146.214) scale(37.5951 49.4387)"><stop offset="0.301807"/><stop offset="0.473878" stop-opacity="0"/></radialGradient></defs></svg>